<svg width="184" height="31" viewBox="0 0 184 31" fill="none" xmlns="http://www.w3.org/2000/svg">
<path d="M12 1.1875C13.4167 1.1875 14.7865 1.27604 16.1094 1.45312C17.4427 1.61979 18.6354 1.91146 19.6875 2.32812C20.75 2.73438 21.6198 3.28646 22.2969 3.98438C22.9844 4.68229 23.3854 5.55208 23.5 6.59375L19.4375 7.71875C19.4375 7.09375 19.224 6.58333 18.7969 6.1875C18.3802 5.78125 17.8229 5.46354 17.125 5.23438C16.4375 4.99479 15.6458 4.82812 14.75 4.73438C13.8646 4.64062 12.9479 4.59375 12 4.59375C11.0729 4.59375 10.1615 4.63542 9.26562 4.71875C8.36979 4.80208 7.5625 4.95833 6.84375 5.1875C6.13542 5.41667 5.5625 5.73438 5.125 6.14062C4.6875 6.54688 4.46875 7.07292 4.46875 7.71875V11.4375H23.5V19.5312C23.5 20.2292 23.3438 20.8542 23.0312 21.4062C22.7292 21.9479 22.3073 22.4219 21.7656 22.8281C21.2344 23.224 20.599 23.5625 19.8594 23.8438C19.1302 24.1146 18.3385 24.3333 17.4844 24.5C16.6406 24.6667 15.75 24.7865 14.8125 24.8594C13.875 24.9323 12.9375 24.9688 12 24.9688C11.0417 24.9688 10.099 24.9323 9.17188 24.8594C8.24479 24.7865 7.36458 24.6667 6.53125 24.5C5.69792 24.3333 4.92188 24.1146 4.20312 23.8438C3.49479 23.5625 2.86979 23.224 2.32812 22.8281C1.78646 22.4219 1.34896 21.9479 1.01562 21.4062C0.682292 20.8646 0.479167 20.2396 0.40625 19.5312L4.46875 18.4062C4.46875 19.0521 4.6875 19.5781 5.125 19.9844C5.5625 20.3906 6.13542 20.7083 6.84375 20.9375C7.5625 21.1667 8.36979 21.3229 9.26562 21.4062C10.1615 21.4896 11.0729 21.5312 12 21.5312C12.9479 21.5312 13.8646 21.4896 14.75 21.4062C15.6458 21.3125 16.4375 21.151 17.125 20.9219C17.8229 20.6823 18.3802 20.3594 18.7969 19.9531C19.224 19.5469 19.4375 19.0312 19.4375 18.4062V14.5938H0.40625V6.59375C0.40625 5.89583 0.557292 5.28125 0.859375 4.75C1.17188 4.20833 1.59375 3.73958 2.125 3.34375C2.66667 2.9375 3.30729 2.59896 4.04688 2.32812C4.78646 2.04688 5.58333 1.82292 6.4375 1.65625C7.30208 1.48958 8.20312 1.36979 9.14062 1.29688C10.0885 1.22396 11.0417 1.1875 12 1.1875ZM38.4062 7.1875C38.9375 7.1875 39.5781 7.21354 40.3281 7.26562C41.0781 7.31771 41.8542 7.41146 42.6562 7.54688C43.4688 7.67188 44.2708 7.85417 45.0625 8.09375C45.8542 8.32292 46.5625 8.61979 47.1875 8.98438C47.8229 9.34896 48.3333 9.79167 48.7188 10.3125C49.1146 10.8229 49.3125 11.4271 49.3125 12.125V17.4062H31.4062V21.4062C32.6667 21.5833 33.8802 21.7083 35.0469 21.7812C36.2135 21.8438 37.3333 21.875 38.4062 21.875C40.0417 21.875 41.5208 21.8125 42.8438 21.6875C44.1771 21.5625 45.3281 21.4219 46.2969 21.2656C47.4115 21.0885 48.4167 20.8854 49.3125 20.6562V24.125C47.3333 24.4375 45.4219 24.6615 43.5781 24.7969C41.7448 24.9323 40.0208 25 38.4062 25C36.7812 25 35.3073 24.9583 33.9844 24.875C32.6615 24.7812 31.526 24.6771 30.5781 24.5625C29.474 24.4375 28.4792 24.2917 27.5938 24.125V12.125C27.5938 11.4271 27.7656 10.8229 28.1094 10.3125C28.4531 9.79167 28.9115 9.34896 29.4844 8.98438C30.0573 8.61979 30.7135 8.32292 31.4531 8.09375C32.2031 7.85417 32.9792 7.67188 33.7812 7.54688C34.5833 7.41146 35.3802 7.31771 36.1719 7.26562C36.974 7.21354 37.7188 7.1875 38.4062 7.1875ZM31.4062 14.9062H45.4375V13.0938C45.4375 12.6667 45.3333 12.3021 45.125 12C44.9167 11.6875 44.6354 11.4271 44.2812 11.2188C43.9375 11.0104 43.5312 10.8438 43.0625 10.7188C42.6042 10.5833 42.125 10.4844 41.625 10.4219C41.125 10.349 40.6198 10.3021 40.1094 10.2812C39.6094 10.2604 39.1354 10.25 38.6875 10.25C38.2188 10.25 37.7135 10.2604 37.1719 10.2812C36.6406 10.3021 36.1042 10.349 35.5625 10.4219C35.0208 10.4948 34.5 10.599 34 10.7344C33.5 10.8594 33.0573 11.0312 32.6719 11.25C32.2865 11.4583 31.9792 11.7188 31.75 12.0312C31.5208 12.3333 31.4062 12.6979 31.4062 13.125V14.9062ZM67.9688 7.1875C67.9688 8.27083 67.9323 9.40104 67.8594 10.5781C67.7865 11.7448 67.6458 12.9479 67.4375 14.1875H63.6562C63.75 13.8333 63.8385 13.4479 63.9219 13.0312C63.9844 12.6771 64.0417 12.2656 64.0938 11.7969C64.1562 11.3177 64.1875 10.8125 64.1875 10.2812C63.2708 10.3021 62.5104 10.3906 61.9062 10.5469C61.3125 10.6927 60.8177 10.8698 60.4219 11.0781C60.026 11.276 59.7031 11.4792 59.4531 11.6875C59.2031 11.8958 58.9792 12.0625 58.7812 12.1875V25H54.7812V12.0938C54.7396 11.7604 54.6406 11.4792 54.4844 11.25C54.3385 11.0208 54.1823 10.8333 54.0156 10.6875C53.8281 10.5104 53.6146 10.3646 53.375 10.25L55.0312 7.1875C55.4167 7.32292 55.7969 7.50521 56.1719 7.73438C56.4948 7.93229 56.8333 8.1875 57.1875 8.5C57.5521 8.80208 57.875 9.17708 58.1562 9.625C58.6875 9.26042 59.1771 8.95312 59.625 8.70312C60.0729 8.44271 60.5052 8.22396 60.9219 8.04688C61.349 7.86979 61.7865 7.73438 62.2344 7.64062C62.6927 7.53646 63.1927 7.45312 63.7344 7.39062C64.2865 7.32812 64.901 7.28646 65.5781 7.26562C66.2656 7.23438 67.0625 7.20833 67.9688 7.1875ZM81.75 7.1875C82.6354 7.1875 83.5365 7.22396 84.4531 7.29688C85.3698 7.35938 86.25 7.44792 87.0938 7.5625C87.9479 7.66667 88.7448 7.79167 89.4844 7.9375C90.2344 8.08333 90.8854 8.23958 91.4375 8.40625H91.6875V25.7812C91.6875 26.5208 91.5312 27.2083 91.2188 27.8438C90.9062 28.4792 90.4531 29.026 89.8594 29.4844C89.2656 29.9531 88.5365 30.3177 87.6719 30.5781C86.8073 30.8385 85.8229 30.9688 84.7188 30.9688V28.25C85.1354 28.25 85.5208 28.2083 85.875 28.125C86.2292 28.0417 86.5365 27.9115 86.7969 27.7344C87.0677 27.5677 87.276 27.3542 87.4219 27.0938C87.5781 26.8438 87.6562 26.5521 87.6562 26.2188V23.8125C86.7083 24.1771 85.724 24.4688 84.7031 24.6875C83.6927 24.8958 82.7083 25 81.75 25C80.1458 25 78.7135 24.8906 77.4531 24.6719C76.1927 24.4427 75.125 24.0938 74.25 23.625C73.375 23.1562 72.7083 22.5625 72.25 21.8438C71.7917 21.125 71.5625 20.2708 71.5625 19.2812V12.9062C71.5625 11.9167 71.7917 11.0625 72.25 10.3438C72.7083 9.625 73.375 9.03125 74.25 8.5625C75.125 8.09375 76.1927 7.75 77.4531 7.53125C78.7135 7.30208 80.1458 7.1875 81.75 7.1875ZM82.875 21.875C83.4479 21.875 83.974 21.8385 84.4531 21.7656C84.9323 21.6823 85.3646 21.5781 85.75 21.4531C86.1458 21.3281 86.5 21.1979 86.8125 21.0625C87.1354 20.9167 87.4167 20.7812 87.6562 20.6562V10.9375C87.375 10.8333 87.0469 10.7292 86.6719 10.625C86.3073 10.5208 85.9115 10.4323 85.4844 10.3594C85.0677 10.276 84.6354 10.2135 84.1875 10.1719C83.7396 10.1198 83.3021 10.0938 82.875 10.0938C81.9062 10.0938 80.9844 10.1198 80.1094 10.1719C79.2344 10.224 78.4688 10.3646 77.8125 10.5938C77.1562 10.8229 76.6302 11.1771 76.2344 11.6562C75.849 12.125 75.6562 12.7812 75.6562 13.625V18.2188C75.6562 18.7708 75.7448 19.2448 75.9219 19.6406C76.099 20.0365 76.3438 20.3698 76.6562 20.6406C76.9792 20.9115 77.3646 21.1302 77.8125 21.2969C78.2604 21.4531 78.75 21.5781 79.2812 21.6719C79.8125 21.7552 80.3802 21.8125 80.9844 21.8438C81.599 21.8646 82.2292 21.875 82.875 21.875ZM107.25 7.1875C107.781 7.1875 108.422 7.21354 109.172 7.26562C109.922 7.31771 110.698 7.41146 111.5 7.54688C112.312 7.67188 113.115 7.85417 113.906 8.09375C114.698 8.32292 115.406 8.61979 116.031 8.98438C116.667 9.34896 117.177 9.79167 117.562 10.3125C117.958 10.8229 118.156 11.4271 118.156 12.125V17.4062H100.25V21.4062C101.51 21.5833 102.724 21.7083 103.891 21.7812C105.057 21.8438 106.177 21.875 107.25 21.875C108.885 21.875 110.365 21.8125 111.688 21.6875C113.021 21.5625 114.172 21.4219 115.141 21.2656C116.255 21.0885 117.26 20.8854 118.156 20.6562V24.125C116.177 24.4375 114.266 24.6615 112.422 24.7969C110.589 24.9323 108.865 25 107.25 25C105.625 25 104.151 24.9583 102.828 24.875C101.505 24.7812 100.37 24.6771 99.4219 24.5625C98.3177 24.4375 97.3229 24.2917 96.4375 24.125V12.125C96.4375 11.4271 96.6094 10.8229 96.9531 10.3125C97.2969 9.79167 97.7552 9.34896 98.3281 8.98438C98.901 8.61979 99.5573 8.32292 100.297 8.09375C101.047 7.85417 101.823 7.67188 102.625 7.54688C103.427 7.41146 104.224 7.31771 105.016 7.26562C105.818 7.21354 106.562 7.1875 107.25 7.1875ZM100.25 14.9062H114.281V13.0938C114.281 12.6667 114.177 12.3021 113.969 12C113.76 11.6875 113.479 11.4271 113.125 11.2188C112.781 11.0104 112.375 10.8438 111.906 10.7188C111.448 10.5833 110.969 10.4844 110.469 10.4219C109.969 10.349 109.464 10.3021 108.953 10.2812C108.453 10.2604 107.979 10.25 107.531 10.25C107.062 10.25 106.557 10.2604 106.016 10.2812C105.484 10.3021 104.948 10.349 104.406 10.4219C103.865 10.4948 103.344 10.599 102.844 10.7344C102.344 10.8594 101.901 11.0312 101.516 11.25C101.13 11.4583 100.823 11.7188 100.594 12.0312C100.365 12.3333 100.25 12.6979 100.25 13.125V14.9062ZM126.562 17.75C126.562 18.3333 126.641 18.8385 126.797 19.2656C126.953 19.6823 127.167 20.0417 127.438 20.3438C127.708 20.6354 128.016 20.875 128.359 21.0625C128.714 21.25 129.083 21.3958 129.469 21.5C129.854 21.5938 130.245 21.6615 130.641 21.7031C131.036 21.7344 131.417 21.75 131.781 21.75C133.104 21.75 134.307 21.5781 135.391 21.2344C136.474 20.8906 137.438 20.4688 138.281 19.9688V7.1875L142.312 7.5V25.7812C142.312 26.5208 142.156 27.2083 141.844 27.8438C141.531 28.4792 141.078 29.026 140.484 29.4844C139.891 29.9531 139.161 30.3177 138.297 30.5781C137.432 30.8385 136.448 30.9688 135.344 30.9688V28.25C135.76 28.25 136.146 28.2083 136.5 28.125C136.854 28.0417 137.161 27.9115 137.422 27.7344C137.693 27.5677 137.901 27.3542 138.047 27.0938C138.203 26.8438 138.281 26.5521 138.281 26.2188V22.9375C137.792 23.2396 137.292 23.5156 136.781 23.7656C136.281 24.0156 135.755 24.2344 135.203 24.4219C134.651 24.599 134.073 24.7396 133.469 24.8438C132.865 24.9479 132.229 25 131.562 25C129.948 25 128.568 24.8698 127.422 24.6094C126.276 24.3385 125.333 23.9427 124.594 23.4219C123.865 22.8906 123.328 22.2344 122.984 21.4531C122.641 20.6719 122.469 19.7604 122.469 18.7188V7.5L126.562 7.1875V17.75Z" fill="white"/>
<path d="M171.969 0.96875C173.573 0.96875 175 1.10938 176.25 1.39062C177.51 1.67188 178.573 2.0625 179.438 2.5625C180.312 3.0625 180.979 3.66667 181.438 4.375C181.896 5.07292 182.125 5.84375 182.125 6.6875V8.96875C182.125 9.86458 181.948 10.5885 181.594 11.1406C181.25 11.6927 180.771 12.1354 180.156 12.4688C180.667 12.6146 181.135 12.8021 181.562 13.0312C182 13.2604 182.37 13.5417 182.672 13.875C182.984 14.1979 183.224 14.5781 183.391 15.0156C183.568 15.4427 183.656 15.9375 183.656 16.5V19.5625C183.656 20.4062 183.349 21.1823 182.734 21.8906C182.12 22.5885 181.281 23.1927 180.219 23.7031C179.156 24.2135 177.917 24.6094 176.5 24.8906C175.083 25.1719 173.573 25.3125 171.969 25.3125C171.073 25.3125 170.156 25.276 169.219 25.2031C168.281 25.1406 167.37 25.0521 166.484 24.9375C165.609 24.8229 164.786 24.6927 164.016 24.5469C163.245 24.401 162.583 24.25 162.031 24.0938V2.15625C162.583 2 163.245 1.85417 164.016 1.71875C164.786 1.57292 165.609 1.44792 166.484 1.34375C167.37 1.22917 168.281 1.14062 169.219 1.07812C170.156 1.00521 171.073 0.96875 171.969 0.96875ZM171.844 14.625C171.281 14.625 170.719 14.6302 170.156 14.6406C169.594 14.6406 169.047 14.6562 168.516 14.6875C167.995 14.7083 167.495 14.7448 167.016 14.7969C166.536 14.849 166.104 14.9167 165.719 15V20.9375C165.927 21.0104 166.193 21.0938 166.516 21.1875C166.849 21.2812 167.266 21.3698 167.766 21.4531C168.266 21.5365 168.865 21.6094 169.562 21.6719C170.26 21.724 171.083 21.75 172.031 21.75C173.198 21.75 174.245 21.6562 175.172 21.4688C176.109 21.2812 176.896 21.0312 177.531 20.7188C178.177 20.4062 178.672 20.0469 179.016 19.6406C179.359 19.224 179.531 18.7917 179.531 18.3438V17C179.531 16.5104 179.312 16.1094 178.875 15.7969C178.438 15.4844 177.859 15.2448 177.141 15.0781C176.422 14.901 175.599 14.7812 174.672 14.7188C173.755 14.6562 172.812 14.625 171.844 14.625ZM165.719 10.75C166.365 10.875 167.099 10.9583 167.922 11C168.755 11.0417 169.698 11.0625 170.75 11.0625C171.656 11.0625 172.557 11.0312 173.453 10.9688C174.349 10.8958 175.156 10.7812 175.875 10.625C176.594 10.4583 177.177 10.2396 177.625 9.96875C178.073 9.6875 178.302 9.33333 178.312 8.90625V7.90625C178.312 7.45833 178.203 7.03125 177.984 6.625C177.776 6.20833 177.422 5.84375 176.922 5.53125C176.432 5.21875 175.786 4.96875 174.984 4.78125C174.182 4.59375 173.198 4.5 172.031 4.5C171.083 4.5 170.26 4.53125 169.562 4.59375C168.865 4.64583 168.266 4.71354 167.766 4.79688C167.266 4.88021 166.849 4.96875 166.516 5.0625C166.193 5.15625 165.927 5.23958 165.719 5.3125V10.75Z" fill="#F4FA1A"/>
</svg>
